<?xml version="1.0" encoding="UTF-8" standalone="no"?>
<!-- Created with Inkscape (http://www.inkscape.org/) -->

<svg
   xmlns:dc="http://purl.org/dc/elements/1.1/"
   xmlns:cc="http://creativecommons.org/ns#"
   xmlns:rdf="http://www.w3.org/1999/02/22-rdf-syntax-ns#"
   xmlns:svg="http://www.w3.org/2000/svg"
   xmlns="http://www.w3.org/2000/svg"
   xmlns:sodipodi="http://sodipodi.sourceforge.net/DTD/sodipodi-0.dtd"
   xmlns:inkscape="http://www.inkscape.org/namespaces/inkscape"
   width="900"
   height="600"
   viewBox="0 0 238.12501 158.75"
   version="1.1"
   id="svg8"
   inkscape:export-filename="C:\Users\vsetien\Pictures\Banderas\Creadas en Inkscape\Esteller.png"
   inkscape:export-xdpi="96"
   inkscape:export-ydpi="96"
   inkscape:version="0.92.2 (5c3e80d, 2017-08-06)"
   sodipodi:docname="Bandera de Esteller.svg">
  <defs
     id="defs2" />
  <sodipodi:namedview
     id="base"
     pagecolor="#ffffff"
     bordercolor="#666666"
     borderopacity="1.0"
     inkscape:pageopacity="0.0"
     inkscape:pageshadow="2"
     inkscape:zoom="0.55201285"
     inkscape:cx="274.59028"
     inkscape:cy="232.01707"
     inkscape:document-units="px"
     inkscape:current-layer="layer1"
     showgrid="false"
     units="px"
     showguides="false"
     inkscape:snap-intersection-paths="true"
     inkscape:snap-nodes="false"
     inkscape:window-width="1280"
     inkscape:window-height="750"
     inkscape:window-x="-8"
     inkscape:window-y="-8"
     inkscape:window-maximized="1" />
  <metadata
     id="metadata5">
    <rdf:RDF>
      <cc:Work
         rdf:about="">
        <dc:format>image/svg+xml</dc:format>
        <dc:type
           rdf:resource="http://purl.org/dc/dcmitype/StillImage" />
        <dc:title />
      </cc:Work>
    </rdf:RDF>
  </metadata>
  <g
     inkscape:label="Layer 1"
     inkscape:groupmode="layer"
     id="layer1"
     transform="translate(0,-138.25001)">
    <rect
       y="138.25002"
       x="-1.4210855e-014"
       height="79.375"
       width="238.125"
       id="rect916"
       style="opacity:1;fill:#ffffff;fill-opacity:1;stroke:none;stroke-width:2.26212239;stroke-linecap:round;stroke-linejoin:miter;stroke-miterlimit:4;stroke-dasharray:none;stroke-dashoffset:0;stroke-opacity:1;paint-order:normal" />
    <rect
       style="opacity:1;fill:#122aad;fill-opacity:1;stroke:none;stroke-width:2.26212239;stroke-linecap:round;stroke-linejoin:miter;stroke-miterlimit:4;stroke-dasharray:none;stroke-dashoffset:0;stroke-opacity:1;paint-order:normal"
       id="rect826"
       width="238.125"
       height="79.375"
       x="-1.4210855e-014"
       y="217.625" />
    <path
       style="fill:#12ad17;stroke:none;stroke-width:0.26458335px;stroke-linecap:butt;stroke-linejoin:miter;stroke-opacity:1;fill-opacity:1"
       d="M 119.0625,217.62501 0,257.31252 v 39.68749 z"
       id="path894"
       inkscape:connector-curvature="0" />
    <path
       style="fill:#12ad17;stroke:none;stroke-width:0.26458335px;stroke-linecap:butt;stroke-linejoin:miter;stroke-opacity:1;fill-opacity:1"
       d="m 119.0625,217.62501 -71.437499,79.375 H 95.25 Z"
       id="path896"
       inkscape:connector-curvature="0" />
    <path
       style="fill:#12ad17;stroke:none;stroke-width:0.26458335px;stroke-linecap:butt;stroke-linejoin:miter;stroke-opacity:1;fill-opacity:1"
       d="m 119.0625,217.62501 23.8125,79.375 H 190.5 Z"
       id="path898"
       inkscape:connector-curvature="0" />
    <path
       style="fill:#12ad17;stroke:none;stroke-width:0.26458335px;stroke-linecap:butt;stroke-linejoin:miter;stroke-opacity:1;fill-opacity:1"
       d="m 119.0625,217.62501 119.0625,39.68751 1e-5,39.68749 z"
       id="path900"
       inkscape:connector-curvature="0"
       sodipodi:nodetypes="cccc" />
    <path
       style="fill:#ef200b;stroke:none;stroke-width:0.26458335px;stroke-linecap:butt;stroke-linejoin:miter;stroke-opacity:1;fill-opacity:1"
       d="m 119.0625,210.13741 c -33.602127,9.86707 -68.480792,8.24531 -104.095406,0 l 6.681738,7.48355 -6.414469,6.1472 c 31.634034,6.69453 64.240657,11.20073 103.828137,0 36.63811,8.48209 70.96428,8.58883 103.57302,0.26727 l -6.41447,-6.41447 6.41447,-7.48366 c -34.0205,8.56524 -68.54458,8.56968 -103.57302,1.1e-4 z"
       id="path914"
       inkscape:connector-curvature="0"
       sodipodi:nodetypes="ccccccccc" />
    <path
       style="fill:#fad400;fill-opacity:1;stroke:none;stroke-width:0.26458335px;stroke-linecap:butt;stroke-linejoin:miter;stroke-opacity:1"
       d="m 119.0625,191.16668 c 8.30128,-2.13126 16.0524,-5.0879 20.22173,-13.41816 1.49931,6.3374 3.00488,12.67287 -1.88988,20.97768 8.18898,1.94938 21.79713,2.71233 29.48215,1.13394 -3.7885,7.7308 -13.60058,14.49647 -21.35567,17.76486 6.43753,11.02661 16.76691,15.33093 28.7262,16.81995 -11.0399,4.23451 -22.09766,3.19716 -33.16999,-2.14358 -3.81558,7.89608 -6.68961,15.79215 -0.0919,23.68823 -8.80882,-2.03482 -12.53329,-6.97498 -14.31998,-13.02245 -9.21032,7.44096 -11.86872,8.6734 -11.49327,19.82792 -5.72737,-5.44851 -6.94098,-7.64358 -3.71201,-19.82792 -7.19926,0.19111 -14.009471,1.39375 -18.717332,8.0625 -1.173588,-5.49741 -4.586919,-10.35489 4.305435,-18.72828 -3.060348,-8.77304 -20.255918,-0.82292 -28.481526,-0.47714 5.254672,-2.66098 8.244767,-14.72711 23.659753,-15.90012 -3.347223,-9.27854 -14.532092,-8.83969 -17.844674,-14.72516 5.086575,-1.04649 15.839934,-4.78175 25.042752,-0.68324 5.292882,-10.52139 2.568812,-18.08916 -1.603619,-25.12333 11.185031,0.72163 19.592891,4.51277 21.241831,15.7743 z"
       id="path912"
       inkscape:connector-curvature="0"
       sodipodi:nodetypes="ccccccccccccccccccc" />
    <circle
       style="opacity:1;fill:#fad400;fill-opacity:1;stroke:#122aad;stroke-width:1.32291669;stroke-linecap:round;stroke-linejoin:miter;stroke-miterlimit:4;stroke-dasharray:none;stroke-dashoffset:0;stroke-opacity:1;paint-order:normal"
       id="path902"
       cx="119.0625"
       cy="217.62502"
       r="22.921824" />
  </g>
</svg>
